<svg width="24" height="24" viewBox="0 0 24 24" fill="none" xmlns="http://www.w3.org/2000/svg">
<path d="M7.75002 4C7.75002 3.80109 7.671 3.61032 7.53035 3.46967C7.3897 3.32902 7.19893 3.25 7.00002 3.25C6.80111 3.25 6.61034 3.32902 6.46969 3.46967C6.32904 3.61032 6.25002 3.80109 6.25002 4V5.816C5.52048 5.91945 4.84483 6.25882 4.32625 6.78228C3.80767 7.30573 3.47464 7.98452 3.37802 8.715L3.29102 9.368C3.27635 9.478 3.26235 9.58867 3.24902 9.7C3.24095 9.76928 3.24768 9.83948 3.26876 9.90597C3.28983 9.97245 3.32477 10.0337 3.37127 10.0857C3.41777 10.1377 3.47478 10.1792 3.53851 10.2075C3.60225 10.2359 3.67127 10.2503 3.74102 10.25H20.26C20.3298 10.2503 20.3988 10.2359 20.4625 10.2075C20.5263 10.1792 20.5833 10.1377 20.6298 10.0857C20.6763 10.0337 20.7112 9.97245 20.7323 9.90597C20.7534 9.83948 20.7601 9.76928 20.752 9.7L20.71 9.368L20.623 8.715C20.5264 7.98452 20.1934 7.30573 19.6748 6.78228C19.1562 6.25882 18.4806 5.91945 17.751 5.816V4C17.751 3.80109 17.672 3.61032 17.5313 3.46967C17.3907 3.32902 17.1999 3.25 17.001 3.25C16.8021 3.25 16.6113 3.32902 16.4707 3.46967C16.33 3.61032 16.251 3.80109 16.251 4V5.668C13.4233 5.41664 10.5788 5.41664 7.75102 5.668L7.75002 4ZM20.945 12.226C20.9403 12.0978 20.886 11.9764 20.7934 11.8876C20.7008 11.7987 20.5773 11.7494 20.449 11.75H3.55102C3.42272 11.7494 3.29921 11.7987 3.20664 11.8876C3.11407 11.9764 3.05969 12.0978 3.05502 12.226C2.99589 14.0357 3.10637 15.8469 3.38502 17.636C3.48772 18.2951 3.80647 18.9015 4.2912 19.3598C4.77593 19.8181 5.39917 20.1024 6.06302 20.168L7.25602 20.286C10.411 20.596 13.589 20.596 16.744 20.286L17.937 20.168C18.6009 20.1024 19.2241 19.8181 19.7088 19.3598C20.1936 18.9015 20.5123 18.2951 20.615 17.636C20.8937 15.8469 21.0041 14.0357 20.945 12.226Z" fill="#6A6A6A"/>
</svg>
