<svg width="24" height="24" viewBox="0 0 24 24" fill="none" xmlns="http://www.w3.org/2000/svg">
<path fill-rule="evenodd" clip-rule="evenodd" d="M6.27457 4.84778C7.79619 3.34844 9.84518 2.50571 11.9814 2.50063C14.1176 2.49556 16.1705 3.32854 17.6993 4.82064H17.7011L17.73 4.84778C20.9375 8.00276 20.9438 13.0704 17.768 16.1938L12.637 21.2406C12.4678 21.4072 12.2398 21.5006 12.0023 21.5006C11.7648 21.5006 11.5368 21.4072 11.3676 21.2406L6.23657 16.1938C5.48327 15.4573 4.88472 14.5777 4.47608 13.6067C4.06744 12.6357 3.85693 11.5928 3.85693 10.5393C3.85693 9.48582 4.06744 8.44295 4.47608 7.47193C4.88472 6.50092 5.48327 5.62135 6.23657 4.88488L6.27457 4.84778ZM12 7.02378C11.6436 7.02378 11.2906 7.09399 10.9613 7.2304C10.632 7.36681 10.3328 7.56675 10.0807 7.8188C9.82865 8.07085 9.62871 8.37008 9.49231 8.6994C9.3559 9.02872 9.28569 9.38168 9.28569 9.73813C9.28569 10.0946 9.3559 10.4475 9.49231 10.7769C9.62871 11.1062 9.82865 11.4054 10.0807 11.6575C10.3328 11.9095 10.632 12.1095 10.9613 12.2459C11.2906 12.3823 11.6436 12.4525 12 12.4525C12.7199 12.4525 13.4103 12.1665 13.9194 11.6575C14.4284 11.1484 14.7144 10.458 14.7144 9.73813C14.7144 9.01824 14.4284 8.32784 13.9194 7.8188C13.4103 7.30976 12.7199 7.02378 12 7.02378Z" fill="#6A6A6A"/>
</svg>
